<svg width="118" height="43" viewBox="0 0 118 43" fill="none" xmlns="http://www.w3.org/2000/svg">
<path d="M58.6907 28.9751C59.4165 28.9751 60.1192 28.8818 60.7988 28.6951C61.485 28.5084 62.0986 28.2284 62.6396 27.8551C63.1807 27.4751 63.6096 26.9984 63.9263 26.4251C64.2496 25.8451 64.4112 25.1684 64.4112 24.3951C64.4112 23.6684 64.276 23.0684 64.0054 22.5951C63.7415 22.1218 63.4017 21.7418 62.986 21.4551C62.577 21.1618 62.1481 20.9351 61.6994 20.7751C61.2508 20.6084 60.8417 20.4751 60.4722 20.3751L57.9979 19.6951C57.6944 19.6151 57.3975 19.5151 57.1072 19.3951C56.8169 19.2751 56.576 19.1184 56.3847 18.9251C56.1934 18.7251 56.0977 18.4684 56.0977 18.1551C56.0977 17.8151 56.2132 17.5218 56.4441 17.2751C56.6816 17.0284 56.9851 16.8418 57.3546 16.7151C57.7307 16.5818 58.1299 16.5218 58.5522 16.5351C59.1988 16.5551 59.7926 16.7484 60.3336 17.1151C60.8747 17.4818 61.2244 18.0151 61.3827 18.7151L64.2924 18.2151C63.9494 16.8618 63.2829 15.8251 62.2932 15.1051C61.3035 14.3851 60.0697 14.0151 58.5917 13.9951C57.6152 13.9884 56.7245 14.1418 55.9195 14.4551C55.1146 14.7684 54.4713 15.2451 53.9896 15.8851C53.508 16.5251 53.2671 17.3284 53.2671 18.2951C53.2671 18.9818 53.3793 19.5518 53.6036 20.0051C53.8346 20.4518 54.1216 20.8118 54.4647 21.0851C54.8078 21.3584 55.1608 21.5684 55.5237 21.7151C55.8931 21.8618 56.2164 21.9751 56.4936 22.0551L60.1951 23.1551C60.7493 23.3218 61.1188 23.5318 61.3035 23.7851C61.4883 24.0318 61.5807 24.3018 61.5807 24.5951C61.5807 24.9951 61.4454 25.3318 61.1749 25.6051C60.911 25.8784 60.5712 26.0851 60.1555 26.2251C59.7398 26.3651 59.3109 26.4351 58.8689 26.4351C58.0771 26.4351 57.3711 26.2118 56.7509 25.7651C56.1307 25.3184 55.7216 24.6818 55.5237 23.8551L52.7129 24.2751C52.858 25.2484 53.2011 26.0884 53.7422 26.7951C54.2898 27.4951 54.9859 28.0351 55.8305 28.4151C56.6816 28.7884 57.635 28.9751 58.6907 28.9751Z" fill="#0B0F19"/>
<path d="M66.7845 16.3751H69.4765V13.9751H66.7845V16.3751ZM66.7845 28.6751H69.4765V17.8751H66.7845V28.6751Z" fill="#0B0F19"/>
<path d="M72.6415 28.6751H75.3335V13.9751H72.6415V28.6751Z" fill="#0B0F19"/>
<path d="M78.4986 16.3751H81.1906V13.9751H78.4986V16.3751ZM78.4986 28.6751H81.1906V17.8751H78.4986V28.6751Z" fill="#0B0F19"/>
<path d="M88.8687 28.9751C90.1091 28.9751 91.1516 28.6651 91.9962 28.0451C92.8407 27.4251 93.4147 26.5418 93.7183 25.3951L90.9669 24.8151C90.8085 25.3351 90.571 25.7351 90.2543 26.0151C89.9376 26.2951 89.4757 26.4351 88.8687 26.4351C88.0571 26.4351 87.4435 26.1451 87.0278 25.5651C86.6188 24.9784 86.4142 24.2151 86.4142 23.2751C86.4142 22.3751 86.6089 21.6251 86.9982 21.0251C87.394 20.4184 88.0176 20.1151 88.8687 20.1151C89.3636 20.1151 89.8056 20.2718 90.1949 20.5851C90.5908 20.8984 90.8679 21.3351 91.0263 21.8951L93.7183 21.1751C93.4807 20.0618 92.9331 19.1851 92.0753 18.5451C91.2242 17.8984 90.1685 17.5751 88.9083 17.5751C87.8196 17.5751 86.8761 17.8218 86.0777 18.3151C85.2794 18.8084 84.6592 19.4851 84.2171 20.3451C83.7816 21.2051 83.5639 22.1818 83.5639 23.2751C83.5639 24.3551 83.775 25.3251 84.1973 26.1851C84.6196 27.0451 85.2266 27.7251 86.0183 28.2251C86.8101 28.7251 87.7602 28.9751 88.8687 28.9751Z" fill="#0B0F19"/>
<path d="M100.218 28.9751C101.287 28.9751 102.227 28.7351 103.039 28.2551C103.857 27.7684 104.493 27.0984 104.949 26.2451C105.41 25.3851 105.641 24.3951 105.641 23.2751C105.641 22.1618 105.414 21.1784 104.959 20.3251C104.503 19.4651 103.867 18.7918 103.048 18.3051C102.237 17.8184 101.293 17.5751 100.218 17.5751C99.1622 17.5751 98.2285 17.8151 97.417 18.2951C96.6054 18.7751 95.9687 19.4451 95.5068 20.3051C95.045 21.1584 94.814 22.1484 94.814 23.2751C94.814 24.3884 95.0384 25.3751 95.487 26.2351C95.9423 27.0884 96.5757 27.7584 97.3873 28.2451C98.1988 28.7318 99.1424 28.9751 100.218 28.9751ZM100.218 26.4351C99.3799 26.4351 98.7432 26.1518 98.3077 25.5851C97.8788 25.0118 97.6644 24.2418 97.6644 23.2751C97.6644 22.3351 97.8689 21.5751 98.278 20.9951C98.6937 20.4084 99.3403 20.1151 100.218 20.1151C101.069 20.1151 101.709 20.4018 102.138 20.9751C102.573 21.5484 102.791 22.3151 102.791 23.2751C102.791 24.2018 102.577 24.9618 102.148 25.5551C101.725 26.1418 101.082 26.4351 100.218 26.4351Z" fill="#0B0F19"/>
<path d="M107.798 28.6751H110.53V23.1951C110.53 22.5218 110.602 21.9818 110.747 21.5751C110.899 21.1684 111.09 20.8618 111.321 20.6551C111.552 20.4418 111.8 20.2984 112.064 20.2251C112.328 20.1518 112.575 20.1151 112.806 20.1151C113.38 20.1151 113.822 20.2451 114.132 20.5051C114.449 20.7651 114.677 21.0884 114.815 21.4751C114.954 21.8618 115.036 22.2484 115.063 22.6351C115.089 23.0151 115.102 23.3284 115.102 23.5751V28.6751H117.834V22.6151C117.834 22.4351 117.82 22.1484 117.794 21.7551C117.768 21.3618 117.692 20.9284 117.566 20.4551C117.441 19.9751 117.23 19.5151 116.933 19.0751C116.643 18.6351 116.234 18.2718 115.706 17.9851C115.178 17.6984 114.495 17.5551 113.657 17.5551C112.885 17.5551 112.212 17.6851 111.638 17.9451C111.064 18.2051 110.582 18.5518 110.193 18.9851V17.8751H107.798V28.6751Z" fill="#0B0F19"/>
<path d="M9.88239 21.5L3.95296 12L22.2354 0L21.7413 10.5L9.88239 21.5Z" fill="url(#paint0_linear_4632_11308)"/>
<path d="M21.7413 10.5L22.2354 0L41.0119 8.5L37.059 25.5L11.8589 29.5L9.88239 21.5L21.7413 10.5Z" fill="url(#paint1_linear_4632_11308)"/>
<path d="M30.1413 43L11.8589 29.5L37.059 25.5L41.5061 30L30.1413 43Z" fill="url(#paint2_linear_4632_11308)"/>
<path d="M37.059 25.5L41.5061 30L45.459 17.5L41.0119 8.5L37.059 25.5Z" fill="url(#paint3_linear_4632_11308)"/>
<path d="M11.8589 29.5L30.1413 43L11.8589 40.5L0 26L11.8589 29.5Z" fill="url(#paint4_linear_4632_11308)"/>
<path d="M3.95296 12L0 26L11.8589 29.5L9.88239 21.5L3.95296 12Z" fill="url(#paint5_linear_4632_11308)"/>
<path d="M30.1418 43L11.8594 29.5L37.0595 25.5L41.5066 30L30.1418 43Z" fill="black" fill-opacity="0.17"/>
<path d="M37.0586 25.5L41.5057 30L45.4586 17.5L41.0116 8.5L37.0586 25.5Z" fill="black" fill-opacity="0.1"/>
<path d="M11.8589 29.5L30.1413 43L11.8589 40.5L0 26L11.8589 29.5Z" fill="black" fill-opacity="0.23"/>
<path d="M3.95296 12L0 26L11.8589 29.5L9.88239 21.5L3.95296 12Z" fill="#C0C0C0" fill-opacity="0.05"/>
<path d="M9.88239 21.5L3.95296 12L22.2354 0L21.7413 10.5L9.88239 21.5Z" fill="white" fill-opacity="0.15"/>
<path fill-rule="evenodd" clip-rule="evenodd" d="M9.88239 21.5L21.7413 10.5L22.2354 0L3.95296 12L9.88239 21.5ZM9.9436 21.0362L21.4509 10.3623L21.9118 0.570006L4.36003 12.0904L9.9436 21.0362Z" fill="white" fill-opacity="0.15"/>
<path fill-rule="evenodd" clip-rule="evenodd" d="M22.0316 10.6377L10.2128 21.6005L12.0807 29.1611L36.8161 25.2349L40.6672 8.6726L22.5109 0.453357L22.0316 10.6377ZM21.7413 10.5L9.88239 21.5L11.8589 29.5L37.059 25.5L41.0119 8.5L22.2354 0L21.7413 10.5Z" fill="white" fill-opacity="0.15"/>
<path fill-rule="evenodd" clip-rule="evenodd" d="M30.0981 42.5967L41.0992 30.0126L36.956 25.82L12.6113 29.6842L30.0981 42.5967ZM30.1413 43L41.5061 30L37.059 25.5L11.8589 29.5L30.1413 43Z" fill="white" fill-opacity="0.15"/>
<path fill-rule="evenodd" clip-rule="evenodd" d="M41.5061 30L45.459 17.5L41.0119 8.5L37.059 25.5L41.5061 30ZM37.3854 25.406L41.3719 29.4399L45.1399 17.5249L41.113 9.37529L37.3854 25.406Z" fill="white" fill-opacity="0.15"/>
<path fill-rule="evenodd" clip-rule="evenodd" d="M11.726 29.7733L0.844177 26.5616L12.0134 40.2184L29.0209 42.544L11.726 29.7733ZM11.8589 29.5L0 26L11.8589 40.5L30.1413 43L11.8589 29.5Z" fill="white" fill-opacity="0.15"/>
<path fill-rule="evenodd" clip-rule="evenodd" d="M0.366066 25.7955L11.446 29.0656L9.60632 21.6195L4.05603 12.7269L0.366066 25.7955ZM0 26L11.8589 29.5L9.88239 21.5L3.95296 12L0 26Z" fill="white" fill-opacity="0.15"/>
<path d="M22.9206 18.5833H26.2752C26.2267 15.6021 23.8017 13.5439 20.1156 13.5439C16.4861 13.5439 13.8266 15.5694 13.8428 18.6078C13.8347 21.0744 15.5565 22.4874 18.3534 23.1653L20.156 23.6227C21.9586 24.0637 22.961 24.5865 22.9691 25.7136C22.961 26.9387 21.8131 27.7718 20.0348 27.7718C18.216 27.7718 16.9064 26.9224 16.7933 25.248H13.4062C13.4952 28.8663 16.0577 30.7367 20.0752 30.7367C24.1169 30.7367 26.4935 28.7846 26.5016 25.7218C26.4935 22.9366 24.416 21.4583 21.5383 20.8049L20.0509 20.4455C18.612 20.1106 17.4076 19.5715 17.4319 18.3709C17.4319 17.2928 18.3776 16.5005 20.0913 16.5005C21.7646 16.5005 22.7912 17.2683 22.9206 18.5833Z" fill="white"/>
<path d="M31.4838 18.8635H28.3573V30.4998H31.4838V18.8635Z" fill="white"/>
<path d="M30.3184 9.68164H29.1741L27.7486 10.5936V11.6845L29.0672 10.8493H29.101V15.4998H30.3184V9.68164Z" fill="white"/>
<path d="M31.5998 14.4771H34.3637V15.4998H35.5277V14.4771H36.2419V13.4913H35.5277V9.68164H34.0038L31.5998 13.5083V14.4771ZM34.3862 13.4913H32.8257V13.4458L34.3412 11.0225H34.3862V13.4913Z" fill="white"/>
<defs>
<linearGradient id="paint0_linear_4632_11308" x1="0" y1="21.6029" x2="45.459" y2="21.6029" gradientUnits="userSpaceOnUse">
<stop stop-color="#6366F1"/>
<stop offset="0.5" stop-color="#8B5CF6"/>
<stop offset="1" stop-color="#D946EF"/>
</linearGradient>
<linearGradient id="paint1_linear_4632_11308" x1="0" y1="21.6029" x2="45.459" y2="21.6029" gradientUnits="userSpaceOnUse">
<stop stop-color="#6366F1"/>
<stop offset="0.5" stop-color="#8B5CF6"/>
<stop offset="1" stop-color="#D946EF"/>
</linearGradient>
<linearGradient id="paint2_linear_4632_11308" x1="0" y1="21.6029" x2="45.459" y2="21.6029" gradientUnits="userSpaceOnUse">
<stop stop-color="#6366F1"/>
<stop offset="0.5" stop-color="#8B5CF6"/>
<stop offset="1" stop-color="#D946EF"/>
</linearGradient>
<linearGradient id="paint3_linear_4632_11308" x1="0" y1="21.6029" x2="45.459" y2="21.6029" gradientUnits="userSpaceOnUse">
<stop stop-color="#6366F1"/>
<stop offset="0.5" stop-color="#8B5CF6"/>
<stop offset="1" stop-color="#D946EF"/>
</linearGradient>
<linearGradient id="paint4_linear_4632_11308" x1="0" y1="21.6029" x2="45.459" y2="21.6029" gradientUnits="userSpaceOnUse">
<stop stop-color="#6366F1"/>
<stop offset="0.5" stop-color="#8B5CF6"/>
<stop offset="1" stop-color="#D946EF"/>
</linearGradient>
<linearGradient id="paint5_linear_4632_11308" x1="0" y1="21.6029" x2="45.459" y2="21.6029" gradientUnits="userSpaceOnUse">
<stop stop-color="#6366F1"/>
<stop offset="0.5" stop-color="#8B5CF6"/>
<stop offset="1" stop-color="#D946EF"/>
</linearGradient>
</defs>
</svg>
